<?xml version="1.0" encoding="UTF-8" ?>
<!DOCTYPE svg PUBLIC "-//W3C//DTD SVG 1.1//EN" "http://www.w3.org/Graphics/SVG/1.1/DTD/svg11.dtd">
<svg width="1536pt" height="1024pt" viewBox="0 0 1536 1024" version="1.1" xmlns="http://www.w3.org/2000/svg">
<g id="#fefefeff">
</g>
<g id="#1e1411ff">
<path fill="#1e1411" opacity="1.00" d=" M 757.45 179.25 C 757.52 173.20 763.96 169.00 769.63 170.43 C 775.53 171.43 778.62 178.48 776.79 183.83 C 775.78 186.43 773.37 188.06 771.37 189.84 C 771.70 211.55 771.34 233.28 771.35 254.99 C 771.35 257.52 771.34 260.06 770.99 262.57 C 768.70 262.58 766.43 262.64 764.16 262.76 C 763.55 238.32 763.90 213.84 763.76 189.38 C 760.11 187.38 756.59 183.77 757.45 179.25 Z" />
<path fill="#1e1411" opacity="1.00" d=" M 770.15 446.12 C 773.08 445.70 776.04 445.79 779.00 445.82 C 797.67 445.91 816.33 445.90 835.00 445.99 C 850.64 445.86 866.91 450.68 878.45 461.57 C 885.42 468.15 889.12 477.46 891.21 486.64 C 893.84 503.30 890.20 522.51 877.11 534.12 C 871.39 540.26 863.22 543.08 855.66 546.18 C 860.35 549.84 865.47 553.30 868.49 558.61 C 873.64 568.09 877.27 578.30 882.12 587.94 C 887.72 599.86 893.10 612.12 901.75 622.22 C 906.55 628.34 913.14 633.55 920.96 634.95 C 924.29 635.71 927.69 634.82 931.05 634.66 C 931.62 636.32 932.82 638.04 932.23 639.88 C 924.83 645.64 915.11 647.12 905.97 646.80 C 888.88 647.28 873.05 637.24 863.19 623.80 C 852.08 608.90 846.49 590.93 839.09 574.09 C 835.41 566.10 833.62 557.01 827.91 550.10 C 825.39 550.14 822.87 550.16 820.36 550.20 C 820.50 563.13 820.32 576.06 820.40 589.00 C 820.47 596.94 819.65 605.00 821.34 612.83 C 822.45 616.97 824.83 621.27 828.99 622.96 C 830.71 623.72 832.49 624.35 834.24 625.07 C 834.32 626.75 834.36 628.44 834.39 630.14 C 832.33 630.84 830.16 630.88 828.03 630.85 C 809.11 630.81 790.17 631.09 771.26 630.76 C 769.51 629.33 769.61 626.50 770.67 624.66 C 773.33 623.30 776.61 623.03 778.77 620.77 C 783.19 616.46 783.52 609.85 783.83 604.06 C 783.81 560.69 783.84 517.31 783.78 473.94 C 783.56 468.67 783.17 463.12 780.56 458.43 C 778.31 454.59 773.82 453.34 769.94 451.87 C 769.86 449.94 769.92 448.02 770.15 446.12 M 820.32 462.16 C 820.58 486.40 820.49 510.64 820.32 534.88 C 828.36 535.39 837.39 535.43 843.87 529.87 C 851.97 521.86 853.31 509.81 853.61 499.00 C 853.41 487.71 852.09 474.84 843.12 466.85 C 836.88 461.32 828.05 462.01 820.32 462.16 Z" />
<path fill="#1e1411" opacity="1.00" d=" M 168.36 457.37 C 183.82 448.13 203.11 445.94 220.40 450.76 C 227.06 452.22 233.32 455.17 239.99 456.52 C 243.02 455.25 245.27 451.39 248.97 452.71 C 251.03 452.93 252.09 455.02 251.83 456.93 C 251.84 470.95 251.87 484.97 251.72 498.99 C 252.12 503.75 243.95 504.50 242.56 500.39 C 239.49 491.04 235.51 481.62 228.48 474.50 C 222.89 468.14 214.40 464.61 205.99 464.53 C 195.93 465.09 187.17 471.72 182.46 480.42 C 172.62 498.95 171.23 520.43 170.44 540.99 C 170.85 553.93 171.56 566.94 174.23 579.64 C 176.79 589.76 179.84 600.21 186.63 608.39 C 192.33 614.73 200.17 619.83 208.96 619.86 C 218.11 620.37 226.96 616.62 233.94 610.91 C 239.45 605.48 243.36 598.75 248.03 592.65 C 251.30 593.79 254.43 595.84 255.61 599.27 C 250.86 613.49 241.18 626.54 227.82 633.83 C 214.11 640.50 198.18 641.61 183.38 638.45 C 169.60 635.09 156.64 627.34 148.24 615.77 C 135.07 598.08 129.76 575.75 128.89 554.02 C 128.74 540.94 128.87 527.71 131.81 514.90 C 134.76 499.62 140.63 484.65 150.63 472.59 C 155.85 466.81 161.35 461.00 168.36 457.37 Z" />
<path fill="#1e1411" opacity="1.00" d=" M 467.24 477.31 C 475.09 475.12 483.47 474.17 491.56 475.59 C 497.89 476.43 503.85 478.83 509.99 480.48 C 512.30 479.22 514.55 476.16 517.47 477.53 C 519.74 478.85 519.38 481.75 519.44 484.00 C 519.29 494.01 519.30 504.04 519.24 514.06 C 517.43 515.05 515.31 515.47 513.32 514.74 C 511.24 512.12 510.80 508.64 509.31 505.70 C 506.70 499.20 502.08 493.49 496.02 489.93 C 488.99 485.91 479.44 486.96 473.54 492.55 C 467.42 498.11 465.01 506.36 463.08 514.13 C 459.59 530.11 459.07 546.67 460.55 562.93 C 461.38 571.80 463.03 580.77 467.25 588.73 C 470.33 595.57 476.05 601.70 483.51 603.57 C 491.79 606.05 500.84 602.68 506.99 596.96 C 511.06 593.33 513.15 588.12 516.86 584.19 C 518.82 585.51 522.09 586.99 521.67 589.86 C 517.97 601.66 509.26 612.31 497.44 616.58 C 485.09 620.54 471.09 620.45 459.32 614.68 C 450.26 610.66 443.49 602.92 438.45 594.59 C 431.45 581.20 429.79 565.86 428.87 551.01 C 429.07 532.00 431.46 511.77 442.86 495.92 C 448.74 487.35 457.61 481.04 467.24 477.31 Z" />
<path fill="#1e1411" opacity="1.00" d=" M 660.43 475.73 C 672.13 473.45 684.16 475.01 695.34 478.87 C 698.83 480.58 701.07 475.63 704.55 476.47 C 706.10 476.77 707.55 478.31 707.38 479.99 C 707.53 489.66 707.33 499.34 707.41 509.01 C 707.32 510.58 707.57 512.24 706.98 513.75 C 704.90 515.52 700.24 515.42 699.67 512.17 C 697.29 504.06 693.99 495.27 686.54 490.50 C 679.06 485.64 667.72 485.46 661.54 492.52 C 655.43 500.12 656.42 512.05 662.79 519.19 C 669.35 526.67 678.96 530.28 686.73 536.25 C 697.64 543.98 708.87 553.68 711.84 567.35 C 715.04 579.18 712.72 592.03 706.47 602.44 C 701.92 608.64 695.71 613.80 688.36 616.25 C 676.56 620.65 663.52 620.38 651.36 617.74 C 647.19 616.90 643.29 615.06 639.13 614.27 C 636.56 614.69 634.96 618.03 632.11 617.32 C 630.67 616.71 629.11 615.81 629.47 613.99 C 629.59 602.04 628.99 590.11 629.18 578.16 C 630.15 576.11 632.77 576.01 634.74 576.17 C 636.76 576.63 636.68 579.02 637.35 580.59 C 639.65 588.60 643.10 596.81 650.03 601.90 C 657.00 607.07 666.90 608.80 674.90 605.05 C 680.13 602.62 684.18 597.50 684.82 591.70 C 686.39 583.37 683.61 574.39 677.45 568.54 C 666.72 557.90 651.73 552.72 641.33 541.65 C 626.78 527.28 625.77 500.96 640.10 486.10 C 645.55 480.60 652.78 476.97 660.43 475.73 Z" />
<path fill="#1e1411" opacity="1.00" d=" M 1130.32 476.29 C 1141.53 475.17 1153.12 478.05 1162.22 484.76 C 1169.89 490.98 1175.89 499.21 1179.37 508.46 C 1186.49 530.19 1187.17 553.85 1181.99 576.09 C 1179.15 586.60 1174.67 597.06 1166.90 604.89 C 1153.72 619.08 1130.61 622.54 1113.69 613.30 C 1105.61 609.16 1099.19 602.24 1094.52 594.54 C 1087.51 582.15 1085.60 567.72 1084.51 553.75 C 1083.94 541.58 1084.70 529.29 1087.61 517.43 C 1090.33 508.14 1094.52 499.18 1100.63 491.63 C 1108.42 483.45 1118.71 476.75 1130.32 476.29 M 1134.32 488.14 C 1127.26 488.86 1122.19 494.62 1120.02 501.01 C 1116.33 511.93 1114.87 523.53 1114.68 535.03 C 1113.53 547.86 1114.70 560.74 1115.79 573.53 C 1117.24 582.19 1118.45 591.31 1123.13 598.93 C 1126.21 604.23 1133.11 607.57 1139.05 605.18 C 1144.80 603.26 1148.29 597.65 1149.98 592.11 C 1152.59 583.00 1153.95 573.55 1154.43 564.10 C 1155.42 550.38 1155.27 536.62 1153.93 522.94 C 1153.20 513.91 1151.59 504.75 1147.35 496.66 C 1144.86 491.93 1139.79 488.01 1134.32 488.14 Z" />
<path fill="#1e1411" opacity="1.00" d=" M 263.94 477.20 C 272.94 476.56 281.98 477.02 291.01 476.84 C 297.97 476.97 304.96 476.61 311.92 477.11 C 314.29 477.17 313.58 480.15 313.83 481.71 C 311.12 482.86 307.99 483.70 306.20 486.24 C 303.63 489.54 303.31 493.92 303.16 497.95 C 303.18 528.30 303.21 558.65 303.24 589.00 C 303.23 595.29 302.54 602.18 306.28 607.67 C 307.89 610.55 311.43 611.00 314.27 611.97 C 314.20 613.34 314.12 614.73 314.03 616.12 C 308.04 616.71 302.01 616.16 296.00 616.29 C 285.26 616.18 274.52 616.46 263.78 616.13 C 263.67 614.74 263.58 613.36 263.49 611.99 C 266.08 610.94 269.26 610.42 270.90 607.90 C 273.52 604.18 273.58 599.42 273.74 595.05 C 273.80 565.37 273.75 535.69 273.78 506.00 C 273.75 499.77 274.44 493.19 271.72 487.37 C 270.20 484.27 266.92 482.91 263.86 481.84 C 262.86 480.47 263.90 478.71 263.94 477.20 Z" />
<path fill="#1e1411" opacity="1.00" d=" M 322.16 478.28 C 322.97 476.38 325.33 477.01 326.96 476.82 C 340.97 476.91 354.98 476.84 368.99 476.90 C 377.83 477.55 387.04 477.82 395.16 481.81 C 403.28 484.98 410.31 491.34 413.44 499.57 C 417.04 507.94 416.89 517.41 415.01 526.18 C 412.28 538.65 401.77 548.41 389.81 552.11 C 392.43 554.15 395.24 556.07 397.21 558.79 C 406.48 573.50 410.85 590.82 421.09 604.96 C 423.81 608.98 428.16 611.49 432.89 612.37 C 432.93 613.81 432.93 615.26 432.88 616.71 C 429.77 618.03 426.46 618.99 423.05 618.80 C 416.35 618.57 409.32 619.70 402.97 616.99 C 396.26 613.81 390.34 608.56 387.35 601.67 C 381.68 588.54 376.29 575.28 370.86 562.05 C 369.81 559.73 368.36 557.62 366.99 555.50 C 365.03 555.49 363.08 555.54 361.14 555.66 C 361.87 569.93 360.97 584.26 361.55 598.55 C 361.96 601.90 362.16 605.74 364.76 608.24 C 366.50 610.04 368.97 610.75 371.11 611.94 C 371.81 613.07 371.49 614.50 371.69 615.77 C 370.49 616.05 369.29 616.21 368.07 616.25 C 354.37 616.20 340.67 616.24 326.97 616.27 C 325.40 616.27 323.85 616.11 322.31 615.86 C 322.33 614.41 322.36 612.97 322.42 611.53 C 324.88 610.40 327.90 609.90 329.60 607.59 C 332.39 604.07 332.42 599.32 332.60 595.05 C 332.62 563.03 332.65 531.01 332.60 498.99 C 332.54 494.86 332.65 490.36 330.19 486.81 C 328.47 483.94 325.07 482.93 322.16 481.73 C 322.10 480.57 322.10 479.42 322.16 478.28 M 361.24 490.08 C 361.28 508.08 361.45 526.07 361.29 544.06 C 367.66 544.83 374.91 544.52 379.79 539.80 C 386.09 533.68 386.67 524.23 387.04 515.98 C 386.50 508.15 385.72 499.11 379.29 493.68 C 374.24 489.55 367.36 489.98 361.24 490.08 Z" />
<path fill="#1e1411" opacity="1.00" d=" M 526.36 477.44 C 527.82 476.91 529.41 476.96 530.96 476.90 C 543.99 476.81 557.01 476.84 570.04 476.82 C 571.45 476.85 573.29 476.52 573.89 478.24 C 573.92 479.38 573.92 480.53 573.88 481.68 C 570.94 482.86 567.73 484.25 566.32 487.31 C 563.74 492.46 564.47 498.44 564.40 504.01 C 564.42 525.34 564.35 546.67 564.30 568.00 C 564.22 576.69 564.54 585.74 568.20 593.77 C 573.58 602.85 586.92 605.21 595.59 599.58 C 599.55 597.49 602.15 593.58 603.49 589.40 C 606.82 580.34 606.75 570.52 606.66 561.00 C 606.69 540.65 606.58 520.30 606.57 499.95 C 606.44 495.38 606.53 490.27 603.44 486.55 C 601.44 483.85 598.04 482.90 595.07 481.71 C 595.10 480.15 595.16 478.60 595.24 477.07 C 601.14 476.44 607.08 476.94 612.99 476.82 C 617.10 476.98 621.33 476.35 625.32 477.60 C 625.50 478.66 625.70 479.72 625.90 480.78 C 623.87 482.82 621.69 484.88 620.63 487.64 C 618.24 493.11 618.97 499.20 618.85 505.00 C 618.91 527.35 618.73 549.69 618.87 572.04 C 618.77 582.60 616.50 593.22 611.65 602.64 C 606.89 609.80 599.46 615.15 591.07 617.17 C 579.22 620.33 565.89 620.13 554.96 614.06 C 546.22 609.88 540.36 601.22 537.89 592.04 C 534.81 582.66 535.76 572.70 535.62 563.00 C 535.60 541.33 535.68 519.65 535.59 497.98 C 535.45 493.54 535.11 488.55 531.84 485.18 C 530.29 483.20 527.71 482.77 525.47 482.00 C 525.71 480.48 525.48 478.78 526.36 477.44 Z" />
<path fill="#1e1411" opacity="1.00" d=" M 901.04 477.11 C 915.34 476.35 929.69 477.03 944.01 476.80 C 954.99 476.86 965.99 476.60 976.97 476.99 C 978.67 476.89 979.47 478.74 979.46 480.18 C 980.18 489.45 980.44 498.74 980.66 508.04 C 979.08 508.36 977.48 508.54 975.89 508.66 C 973.69 504.11 972.43 498.91 968.79 495.21 C 965.73 492.08 961.42 490.19 957.05 490.16 C 951.01 490.12 944.98 490.16 938.95 490.08 C 938.96 506.09 938.84 522.11 939.13 538.12 C 944.71 537.96 950.33 538.44 955.88 537.83 C 961.33 536.71 962.52 530.57 964.20 526.15 C 965.87 526.31 967.90 525.62 969.36 526.68 C 969.97 529.40 969.74 532.23 969.80 535.00 C 969.67 544.22 970.00 553.44 969.62 562.65 C 967.79 562.78 965.96 562.85 964.15 562.86 C 963.15 558.13 961.01 552.44 955.68 551.36 C 950.13 551.05 944.54 551.36 938.98 551.23 C 938.90 565.83 938.80 580.45 939.07 595.06 C 938.90 599.23 941.69 603.52 946.18 603.57 C 953.41 603.65 961.35 604.91 967.85 600.91 C 974.03 597.34 976.73 590.39 980.02 584.44 C 981.92 584.63 984.71 583.97 985.56 586.30 C 984.34 593.48 982.79 600.61 981.52 607.79 C 981.05 610.42 980.72 613.14 979.62 615.60 C 978.35 616.67 976.51 616.04 975.03 616.25 C 950.28 616.17 925.54 616.36 900.80 616.28 C 900.79 614.57 900.81 612.87 900.85 611.18 C 903.28 610.34 906.19 609.93 907.77 607.65 C 910.68 603.80 910.38 598.63 910.67 594.05 C 910.72 561.35 910.79 528.64 910.63 495.93 C 910.93 489.73 907.59 482.84 900.93 481.80 C 900.84 480.23 900.87 478.66 901.04 477.11 Z" />
<path fill="#1e1411" opacity="1.00" d=" M 986.94 481.91 C 986.92 479.84 987.13 476.70 990.01 476.97 C 1005.00 476.72 1020.00 476.86 1034.99 476.92 C 1046.17 476.88 1057.70 479.48 1066.84 486.15 C 1072.60 491.49 1077.39 498.34 1078.68 506.24 C 1081.32 519.98 1079.06 535.71 1069.34 546.32 C 1064.47 551.43 1057.94 554.80 1051.08 556.31 C 1042.76 558.57 1034.07 558.10 1025.56 558.09 C 1025.40 569.72 1025.64 581.35 1025.67 592.99 C 1025.64 597.66 1026.08 602.53 1028.25 606.76 C 1029.81 609.85 1033.50 610.63 1036.49 611.70 C 1036.59 613.05 1036.67 614.40 1036.75 615.77 C 1032.21 616.63 1027.58 616.20 1023.00 616.31 C 1011.26 616.18 999.52 616.56 987.79 616.13 C 987.52 614.76 987.47 613.40 987.66 612.04 C 989.87 610.43 993.00 609.98 994.47 607.46 C 997.85 602.33 997.18 595.84 997.34 590.00 C 997.22 559.00 997.25 528.01 997.27 497.01 C 997.28 492.89 996.36 488.59 993.61 485.40 C 992.02 483.27 989.21 482.92 986.94 481.91 M 1025.55 489.94 C 1025.70 508.65 1025.59 527.36 1025.66 546.07 C 1031.65 546.14 1038.55 546.69 1043.34 542.36 C 1049.63 536.37 1050.02 527.08 1050.87 519.00 C 1050.98 510.56 1050.04 501.29 1044.43 494.57 C 1039.67 489.32 1032.00 489.74 1025.55 489.94 Z" />
<path fill="#1e1411" opacity="1.00" d=" M 1186.03 477.21 C 1197.67 476.46 1209.35 477.03 1221.00 476.89 C 1233.83 476.95 1247.36 476.89 1259.06 482.91 C 1267.77 486.65 1273.77 495.07 1275.99 504.11 C 1278.06 513.67 1277.41 523.84 1273.84 532.97 C 1269.82 542.33 1261.33 549.30 1251.56 551.99 C 1255.23 554.82 1258.82 557.99 1260.85 562.25 C 1266.16 573.04 1270.62 584.23 1276.05 594.97 C 1279.63 601.94 1283.97 610.37 1292.65 611.47 C 1293.75 613.48 1292.94 616.03 1290.70 616.80 C 1285.67 618.60 1280.21 617.59 1275.00 617.91 C 1266.65 618.53 1257.94 614.80 1252.78 608.21 C 1246.20 597.32 1242.42 585.08 1237.39 573.46 C 1235.11 568.12 1233.72 562.37 1230.58 557.44 C 1229.35 554.80 1225.84 556.19 1223.59 555.78 C 1223.82 569.52 1223.55 583.26 1223.75 596.99 C 1223.99 600.41 1224.21 604.04 1225.95 607.09 C 1227.54 609.74 1230.77 610.31 1233.31 611.70 C 1234.21 612.89 1233.55 614.57 1233.78 615.97 C 1217.83 616.75 1201.81 616.36 1185.84 616.19 C 1185.75 614.81 1185.76 613.45 1185.86 612.09 C 1187.91 610.28 1191.18 610.18 1192.75 607.73 C 1195.79 603.50 1195.25 597.97 1195.51 593.04 C 1195.75 562.36 1195.67 531.68 1195.69 501.00 C 1195.68 496.02 1195.54 490.64 1192.75 486.32 C 1191.25 483.92 1188.46 483.01 1186.11 481.72 C 1185.34 480.31 1185.95 478.68 1186.03 477.21 M 1223.64 490.05 C 1223.73 508.14 1223.65 526.23 1223.77 544.31 C 1230.39 544.82 1238.20 544.26 1242.67 538.67 C 1247.58 531.91 1248.51 523.15 1248.54 515.03 C 1248.08 507.19 1246.88 497.97 1239.96 493.06 C 1235.24 489.56 1229.18 489.98 1223.64 490.05 Z" />
<path fill="#1e1411" opacity="1.00" d=" M 1285.10 479.16 C 1285.34 477.35 1287.30 476.51 1288.96 476.72 C 1324.33 476.76 1359.70 476.79 1395.07 476.79 C 1397.51 476.26 1398.95 478.86 1398.80 480.98 C 1399.04 489.61 1400.26 498.22 1400.05 506.86 C 1398.82 509.00 1396.10 507.95 1394.12 508.15 C 1391.83 502.03 1388.38 495.60 1382.02 492.96 C 1374.04 488.85 1364.88 490.55 1356.29 490.17 C 1356.43 526.13 1356.43 562.09 1356.41 598.05 C 1356.46 602.19 1356.71 606.54 1358.73 610.26 C 1360.55 613.67 1364.56 614.66 1367.81 616.22 C 1367.58 617.91 1368.57 621.05 1365.92 621.03 C 1348.66 621.09 1331.37 621.30 1314.13 620.85 C 1313.99 619.26 1313.91 617.66 1313.88 616.08 C 1317.14 614.87 1321.14 614.33 1323.16 611.13 C 1325.84 606.98 1325.54 601.79 1325.84 597.05 C 1325.91 561.43 1325.82 525.82 1325.80 490.21 C 1316.27 490.57 1305.66 488.44 1297.29 494.19 C 1292.86 496.87 1291.26 501.97 1289.45 506.49 C 1288.52 509.10 1285.20 507.83 1283.16 507.84 C 1282.99 502.21 1283.43 496.59 1284.07 491.01 C 1284.32 487.05 1284.16 483.04 1285.10 479.16 Z" />
</g>
<g id="#d6291bff">
<path fill="#d6291b" opacity="1.00" d=" M 809.01 187.69 C 823.02 185.46 837.95 186.77 850.69 193.30 C 855.71 195.56 860.92 197.37 866.21 198.89 C 878.95 201.85 892.13 200.52 904.97 198.96 C 917.66 197.39 930.61 198.16 943.07 201.05 C 943.96 201.21 944.67 201.67 945.22 202.42 C 929.89 204.63 916.65 213.46 904.43 222.41 C 893.88 230.96 880.77 237.07 866.99 237.12 C 856.93 237.64 847.12 234.74 837.87 231.10 C 830.29 228.06 822.17 226.68 814.06 226.20 C 800.93 225.81 788.34 230.17 775.82 233.52 C 776.09 220.99 776.19 208.46 776.00 195.93 C 787.00 193.15 797.63 188.81 809.01 187.69 Z" />
<path fill="#d6291b" opacity="1.00" d=" M 764.16 262.76 C 766.43 262.64 768.70 262.58 770.99 262.57 C 772.16 264.48 773.48 266.33 775.06 267.94 C 784.57 277.48 794.69 286.40 804.98 295.09 C 824.10 311.63 844.98 325.92 865.75 340.26 C 880.75 350.07 896.05 359.39 911.39 368.66 C 935.63 383.07 960.50 396.39 985.44 409.53 C 998.01 415.46 1010.05 422.43 1022.76 428.09 C 1031.26 431.79 1039.33 436.41 1047.87 440.06 C 1068.75 449.48 1089.71 458.71 1110.93 467.35 C 1108.96 468.90 1106.67 470.40 1104.06 470.20 C 1091.07 470.10 1078.07 470.36 1065.10 470.06 C 1057.03 465.41 1047.85 463.23 1038.77 461.54 C 1027.91 460.91 1016.96 461.85 1006.12 461.09 C 983.80 448.28 961.71 435.03 940.46 420.50 C 916.43 404.56 893.07 387.58 870.91 369.12 C 844.38 347.86 819.65 324.40 796.73 299.30 C 788.05 290.49 780.86 280.41 773.01 270.91 C 787.89 302.49 807.96 331.30 828.89 359.13 C 849.03 385.39 871.18 410.03 894.56 433.45 C 903.63 442.85 913.64 451.33 922.43 461.00 C 912.65 461.57 902.86 460.79 893.08 461.21 C 886.43 449.12 873.55 442.11 860.82 438.05 C 853.36 436.16 845.77 434.25 838.02 434.42 C 831.97 434.40 825.92 434.42 819.88 434.51 C 813.43 420.34 806.67 406.27 801.44 391.60 C 796.42 379.01 791.94 366.22 787.63 353.37 C 781.51 333.23 775.34 313.03 771.73 292.26 C 770.08 284.98 769.72 277.41 767.13 270.37 C 765.34 277.49 764.63 284.84 762.97 291.99 C 754.80 329.22 743.15 365.64 728.96 401.00 C 724.40 413.32 718.53 425.09 713.15 437.06 C 708.85 444.96 705.61 453.39 700.96 461.11 C 694.25 461.16 687.54 461.09 680.83 461.06 C 671.88 459.88 662.93 461.02 654.01 461.61 C 639.77 460.77 625.49 461.70 611.25 461.09 L 612.02 460.29 C 628.90 444.07 645.88 427.93 661.65 410.62 C 686.65 384.25 708.59 355.18 729.41 325.46 C 736.29 314.91 743.22 304.38 749.23 293.30 C 753.23 286.14 758.00 279.33 761.09 271.70 C 756.22 276.71 752.70 282.84 748.18 288.15 C 723.30 316.23 696.43 342.66 666.97 365.94 C 639.41 389.23 609.83 409.98 579.65 429.72 C 563.79 440.42 547.27 450.09 530.87 459.94 C 527.95 461.95 524.30 461.17 521.00 461.30 C 511.33 461.10 501.66 461.55 492.01 461.04 C 479.67 459.69 466.89 461.96 456.02 468.03 C 454.12 468.97 452.30 470.47 450.05 470.25 C 438.50 470.20 426.92 470.66 415.39 470.07 C 428.80 464.09 442.61 458.95 456.15 453.21 C 473.25 445.34 490.67 438.12 507.40 429.46 C 522.06 423.14 535.91 415.14 550.36 408.38 C 566.91 399.15 584.02 390.96 600.29 381.22 C 619.01 370.92 637.24 359.71 655.28 348.26 C 672.19 338.24 687.96 326.44 703.82 314.86 C 725.30 299.17 745.74 281.98 764.16 262.76 Z" />
<path fill="#d6291b" opacity="1.00" d=" M 1258.95 634.21 C 1272.30 633.61 1285.65 632.67 1298.97 631.56 C 1304.35 631.57 1309.70 631.09 1315.07 630.63 C 1317.39 639.73 1314.94 649.00 1312.97 657.91 C 1310.39 668.05 1305.91 677.97 1298.53 685.54 C 1293.50 691.07 1287.08 695.17 1280.25 698.10 C 1271.20 701.86 1261.19 702.32 1251.55 701.67 C 1221.52 699.10 1193.79 676.91 1185.91 647.63 C 1185.64 645.16 1185.44 642.68 1185.24 640.21 L 1185.18 639.40 C 1209.77 637.75 1234.38 636.22 1258.95 634.21 Z" />
<path fill="#d6291b" opacity="1.00" d=" M 252.47 635.50 C 254.15 634.28 255.65 632.19 257.97 632.48 C 276.69 633.28 295.30 635.90 314.02 636.90 C 325.24 638.13 336.51 638.88 347.79 639.42 L 347.69 640.22 C 347.34 643.43 346.85 646.63 346.18 649.80 C 342.55 660.56 336.73 670.62 328.72 678.71 C 314.47 693.20 294.40 702.02 274.00 701.87 C 261.35 702.26 248.78 697.82 238.69 690.29 C 227.70 681.22 221.92 667.52 218.48 654.02 C 231.09 650.67 242.78 644.23 252.47 635.50 Z" />
<path fill="#d6291b" opacity="1.00" d=" M 488.22 648.28 C 517.81 649.67 547.40 651.07 577.01 652.00 C 598.01 652.42 618.97 653.82 639.99 653.57 C 644.70 653.77 649.48 653.25 654.15 654.13 C 654.15 654.78 654.15 656.08 654.15 656.73 C 650.58 672.91 642.81 688.29 631.01 700.01 C 611.70 720.73 581.72 730.80 553.81 726.14 C 534.96 722.90 517.34 712.47 505.86 697.11 C 496.25 684.83 490.47 669.85 488.35 654.45 C 488.30 652.39 488.26 650.33 488.22 648.28 Z" />
<path fill="#d6291b" opacity="1.00" d=" M 946.00 652.19 C 978.83 651.81 1011.63 649.57 1044.46 648.55 C 1044.40 649.45 1044.29 651.24 1044.24 652.14 C 1044.16 652.77 1044.01 654.01 1043.94 654.64 C 1041.54 674.53 1032.44 693.92 1017.36 707.33 C 1000.31 722.48 976.52 729.63 953.94 726.52 C 927.01 723.42 902.17 706.72 888.82 683.20 C 883.60 674.85 880.30 665.41 877.98 655.89 C 878.00 655.48 878.04 654.67 878.06 654.27 C 880.98 654.25 883.93 653.90 886.84 654.31 C 892.08 656.18 897.26 658.38 902.75 659.44 C 912.17 660.77 922.16 659.38 930.36 654.35 C 934.94 651.04 940.75 652.53 946.00 652.19 Z" />
</g>
<g id="#fbefc9ff">
<path fill="#fbefc9" opacity="1.00" d=" M 767.13 270.37 C 769.72 277.41 770.08 284.98 771.73 292.26 C 775.34 313.03 781.51 333.23 787.63 353.37 C 791.94 366.22 796.42 379.01 801.44 391.60 C 806.67 406.27 813.43 420.34 819.88 434.51 C 819.59 434.83 819.02 435.48 818.73 435.80 C 802.49 436.63 786.15 434.86 770.00 437.07 C 766.75 437.14 763.73 438.37 761.05 440.12 C 760.90 444.93 760.57 449.99 762.44 454.55 C 763.89 456.52 766.03 457.83 767.94 459.33 C 767.79 459.82 767.49 460.81 767.34 461.30 C 763.36 462.53 759.15 462.84 755.01 463.02 C 741.68 462.99 728.34 462.91 715.01 463.04 C 708.62 463.27 702.39 461.29 696.00 461.62 C 690.95 461.33 685.77 462.41 680.83 461.06 C 687.54 461.09 694.25 461.16 700.96 461.11 C 705.61 453.39 708.85 444.96 713.15 437.06 C 718.53 425.09 724.40 413.32 728.96 401.00 C 743.15 365.64 754.80 329.22 762.97 291.99 C 764.63 284.84 765.34 277.49 767.13 270.37 Z" />
<path fill="#fbefc9" opacity="1.00" d=" M 773.01 270.91 C 780.86 280.41 788.05 290.49 796.73 299.30 C 819.65 324.40 844.38 347.86 870.91 369.12 C 893.07 387.58 916.43 404.56 940.46 420.50 C 961.71 435.03 983.80 448.28 1006.12 461.09 C 1004.19 462.26 1002.37 463.93 1000.01 464.05 C 995.30 464.48 990.71 462.92 986.01 462.96 C 966.67 463.09 947.33 462.90 927.98 463.06 C 924.91 463.15 921.96 462.25 918.97 461.79 C 910.37 461.00 901.59 462.46 893.08 461.21 C 902.86 460.79 912.65 461.57 922.43 461.00 C 913.64 451.33 903.63 442.85 894.56 433.45 C 871.18 410.03 849.03 385.39 828.89 359.13 C 807.96 331.30 787.89 302.49 773.01 270.91 Z" />
<path fill="#fbefc9" opacity="1.00" d=" M 748.18 288.15 C 752.70 282.84 756.22 276.71 761.09 271.70 C 758.00 279.33 753.23 286.14 749.23 293.30 C 743.22 304.38 736.29 314.91 729.41 325.46 C 708.59 355.18 686.65 384.25 661.65 410.62 C 645.88 427.93 628.90 444.07 612.02 460.29 C 610.44 461.90 608.37 463.16 606.03 462.99 C 584.69 463.02 563.34 462.92 542.00 463.03 C 538.14 463.03 533.52 463.34 530.87 459.94 C 547.27 450.09 563.79 440.42 579.65 429.72 C 609.83 409.98 639.41 389.23 666.97 365.94 C 696.43 342.66 723.30 316.23 748.18 288.15 Z" />
<path fill="#fbefc9" opacity="1.00" d=" M 347.69 640.22 C 353.15 639.81 358.57 640.85 364.01 641.07 C 392.05 642.70 420.03 645.23 448.09 646.25 C 461.45 647.26 474.87 647.21 488.22 648.28 C 488.26 650.33 488.30 652.39 488.35 654.45 C 485.06 659.94 483.77 666.27 481.02 672.00 C 477.93 678.82 473.61 685.04 468.71 690.68 C 455.06 704.64 436.74 714.68 417.04 716.00 C 411.15 716.11 405.20 716.48 399.37 715.52 C 389.93 713.53 380.78 709.78 373.02 704.00 C 361.61 695.07 353.25 682.32 349.78 668.23 C 348.15 662.17 348.03 655.81 346.18 649.80 C 346.85 646.63 347.34 643.43 347.69 640.22 Z" />
<path fill="#fbefc9" opacity="1.00" d=" M 1170.04 640.93 C 1175.10 640.58 1180.15 639.71 1185.24 640.21 C 1185.44 642.68 1185.64 645.16 1185.91 647.63 C 1183.96 654.37 1184.01 661.47 1182.30 668.26 C 1179.95 679.50 1174.02 689.82 1165.86 697.84 C 1154.46 710.02 1137.63 716.76 1121.00 716.27 C 1113.56 716.44 1106.13 715.29 1099.08 712.95 C 1088.32 709.45 1077.85 704.28 1069.72 696.26 C 1065.43 691.89 1060.51 687.99 1057.26 682.72 C 1054.23 677.97 1051.21 673.20 1048.96 668.02 C 1046.95 663.68 1046.44 658.76 1043.94 654.64 C 1044.01 654.01 1044.16 652.77 1044.24 652.14 C 1044.46 650.92 1044.91 649.74 1045.57 648.70 C 1049.24 647.47 1053.24 648.19 1057.06 647.81 C 1078.34 646.21 1099.71 646.16 1120.97 644.19 C 1137.35 643.45 1153.69 642.18 1170.04 640.93 Z" />
<path fill="#fbefc9" opacity="1.00" d=" M 654.15 654.13 C 683.11 653.84 712.08 654.40 741.04 654.35 C 753.02 654.94 765.01 654.55 777.00 654.71 C 788.35 654.89 799.70 653.86 811.05 654.59 C 833.38 654.21 855.73 653.88 878.06 654.27 C 878.04 654.67 878.00 655.48 877.98 655.89 C 871.61 680.56 856.46 702.98 835.21 717.20 C 806.38 736.12 769.59 741.51 736.18 733.85 C 721.44 730.81 707.79 723.97 695.37 715.64 C 681.05 705.96 670.29 691.85 662.33 676.67 C 658.86 670.33 657.51 663.12 654.15 656.73 C 654.15 656.08 654.15 654.78 654.15 654.13 Z" />
</g>
</svg>
