<?xml version="1.0" encoding="UTF-8" ?>
<!DOCTYPE svg PUBLIC "-//W3C//DTD SVG 1.1//EN" "http://www.w3.org/Graphics/SVG/1.1/DTD/svg11.dtd">
<svg width="1831pt" height="817pt" viewBox="0 0 1831 817" version="1.1" xmlns="http://www.w3.org/2000/svg">
<g id="#1e1411ff">
<path fill="#1e1411" opacity="1.00" d=" M 907.37 14.41 C 911.99 9.72 919.98 8.93 925.41 12.67 C 930.52 16.39 932.62 23.66 930.51 29.58 C 929.01 33.09 925.75 35.31 923.03 37.80 C 923.51 64.19 923.09 90.59 923.05 116.98 C 922.82 124.21 923.37 131.47 922.55 138.68 C 919.34 138.69 916.14 138.78 912.95 138.92 C 912.13 105.00 912.55 71.07 912.37 37.15 C 908.53 34.79 904.63 31.59 903.67 26.95 C 903.02 22.53 904.00 17.57 907.37 14.41 Z" />
<path fill="#1e1411" opacity="1.00" d=" M 921.20 393.59 C 928.44 392.77 935.73 393.37 943.00 393.25 C 966.67 393.31 990.34 393.34 1014.02 393.44 C 1036.27 393.82 1059.40 401.47 1074.75 418.16 C 1085.80 431.31 1091.13 448.89 1090.59 465.95 C 1090.29 482.26 1085.42 499.06 1074.42 511.42 C 1070.34 515.73 1066.14 520.04 1061.01 523.10 C 1054.60 527.01 1047.57 529.73 1040.60 532.42 C 1045.85 537.79 1052.84 541.55 1056.87 548.14 C 1062.62 557.83 1066.66 568.41 1071.28 578.66 C 1081.56 600.04 1090.25 622.81 1106.25 640.76 C 1112.65 648.15 1121.15 654.19 1130.92 655.93 C 1135.56 656.87 1140.26 655.77 1144.91 655.48 C 1145.87 657.78 1146.69 660.16 1146.77 662.69 C 1136.11 670.95 1122.14 672.96 1109.02 672.49 C 1090.27 672.70 1072.36 663.73 1059.27 650.67 C 1044.11 635.44 1035.20 615.45 1027.14 595.86 C 1023.47 586.87 1019.88 577.85 1015.95 568.98 C 1011.60 558.55 1008.78 547.24 1001.69 538.20 C 998.15 538.15 994.61 538.21 991.08 538.26 C 991.33 556.52 991.03 574.78 991.17 593.03 C 991.20 603.38 990.24 613.86 992.24 624.10 C 993.41 629.57 996.15 635.11 1001.01 638.18 C 1003.94 639.86 1007.20 640.88 1010.35 642.12 C 1010.45 644.53 1010.54 646.95 1010.64 649.38 C 1008.13 649.92 1005.59 650.35 1003.02 650.30 C 976.33 650.12 949.62 650.81 922.94 650.06 C 919.73 647.91 920.13 641.04 924.58 640.53 C 929.01 639.24 933.55 637.23 935.87 632.98 C 941.31 623.64 940.04 612.34 940.25 601.97 C 940.25 548.97 940.25 495.98 940.25 442.98 C 940.14 432.50 940.88 421.38 936.21 411.68 C 933.36 405.80 926.68 403.74 920.98 401.73 C 920.91 399.01 921.00 396.30 921.20 393.59 M 991.08 415.99 C 991.38 449.64 991.23 483.29 991.10 516.93 C 999.56 517.36 1008.40 517.64 1016.40 514.37 C 1023.82 511.63 1028.75 504.86 1031.81 497.86 C 1037.10 484.99 1037.71 470.68 1036.72 456.96 C 1035.75 444.22 1032.21 430.50 1022.01 421.98 C 1013.40 414.91 1001.53 415.72 991.08 415.99 Z" />
<path fill="#1e1411" opacity="1.00" d=" M 85.93 408.93 C 105.94 397.23 130.42 393.82 152.98 398.86 C 163.92 401.03 174.18 405.57 185.02 408.15 C 188.87 406.13 192.10 401.53 196.93 402.57 C 199.72 402.75 201.76 405.35 201.49 408.09 C 201.54 427.72 201.51 447.35 201.32 466.98 C 201.87 473.81 190.37 474.94 188.48 468.91 C 184.25 456.18 178.85 443.38 169.42 433.57 C 162.53 425.63 152.52 420.67 142.11 419.53 C 125.38 417.74 110.00 429.87 103.45 444.61 C 94.32 463.39 90.98 484.34 89.50 504.98 C 88.91 514.64 88.09 524.31 88.74 533.99 C 89.71 557.81 92.09 582.16 101.85 604.19 C 107.58 617.72 118.73 629.44 133.04 633.67 C 148.25 637.71 164.73 632.46 176.51 622.48 C 184.31 615.00 189.60 605.44 196.27 597.03 C 200.56 598.93 205.86 601.72 206.54 606.78 C 200.01 626.44 186.60 644.27 168.27 654.32 C 149.41 663.63 127.34 665.21 106.92 660.96 C 89.16 656.82 72.41 647.36 60.62 633.33 C 40.41 608.64 32.11 576.33 30.70 544.96 C 30.30 525.92 30.61 506.66 34.91 488.01 C 39.03 467.53 46.94 447.42 60.24 431.12 C 67.69 422.57 75.79 414.25 85.93 408.93 Z" />
<path fill="#1e1411" opacity="1.00" d=" M 775.49 433.75 C 789.78 432.18 804.28 434.52 817.79 439.22 C 822.37 440.97 825.41 434.93 829.95 435.71 C 832.43 436.02 834.45 438.40 834.18 440.94 C 834.43 454.58 834.07 468.24 834.22 481.89 C 834.16 483.82 834.25 485.83 833.62 487.69 C 830.57 490.11 824.41 489.98 823.40 485.51 C 820.40 475.38 816.59 464.75 808.32 457.68 C 798.88 449.60 783.66 447.64 773.45 455.38 C 765.53 461.67 763.37 473.06 765.73 482.52 C 767.14 488.50 770.52 493.89 775.05 498.01 C 784.00 506.53 795.64 511.30 805.41 518.72 C 817.87 527.64 830.31 537.87 836.99 552.02 C 842.39 564.15 843.79 578.05 840.84 591.00 C 838.51 600.89 834.45 610.81 826.89 617.87 C 815.11 630.07 797.56 634.45 781.09 634.74 C 769.44 634.76 757.69 633.16 746.68 629.28 C 744.18 628.51 741.70 627.57 739.10 627.31 C 735.81 628.21 733.64 631.99 729.97 631.61 C 727.92 631.02 725.47 629.52 725.89 627.03 C 726.09 610.71 725.21 594.40 725.48 578.09 C 725.49 574.40 730.29 573.88 733.07 574.24 C 735.40 574.44 735.87 577.12 736.47 578.92 C 739.52 589.70 743.75 600.84 752.46 608.35 C 761.42 616.06 774.41 619.34 785.78 615.65 C 793.19 613.32 799.49 607.43 801.86 599.99 C 804.92 589.61 803.23 577.89 797.02 568.99 C 791.51 561.45 783.70 556.01 776.04 550.86 C 763.31 542.61 749.62 535.20 739.65 523.48 C 727.69 509.53 723.74 489.55 728.24 471.87 C 731.11 460.34 737.98 449.65 747.98 443.06 C 756.05 437.42 765.78 434.73 775.49 433.75 Z" />
<path fill="#1e1411" opacity="1.00" d=" M 500.83 436.91 C 511.83 433.74 523.53 432.64 534.86 434.59 C 543.49 435.86 551.65 439.05 560.03 441.36 C 562.84 439.58 565.43 436.46 569.06 436.80 C 572.42 437.28 573.26 441.17 573.15 444.01 C 573.04 458.72 572.84 473.43 572.94 488.15 C 570.43 489.15 567.66 490.07 564.97 489.18 C 562.46 487.00 561.86 483.48 560.64 480.53 C 557.19 470.39 550.86 460.95 541.65 455.22 C 532.60 449.37 520.00 449.97 511.44 456.47 C 503.16 462.76 499.01 472.80 496.34 482.54 C 491.06 502.21 489.72 522.76 490.50 543.05 C 491.29 559.73 492.89 577.01 500.79 592.04 C 505.17 601.46 513.09 609.80 523.41 612.39 C 534.75 615.63 547.00 611.13 555.48 603.42 C 561.32 598.30 564.30 590.88 569.59 585.29 C 572.44 587.38 577.47 589.64 576.02 594.03 C 571.33 608.53 561.19 621.60 547.40 628.43 C 537.99 632.83 527.40 634.32 517.08 634.25 C 498.67 634.06 480.20 625.94 468.68 611.38 C 454.92 595.61 450.56 574.27 448.43 554.04 C 446.47 538.35 447.39 522.43 449.75 506.84 C 452.62 488.63 459.28 470.55 471.60 456.57 C 479.53 447.75 489.73 441.02 500.83 436.91 Z" />
<path fill="#1e1411" opacity="1.00" d=" M 1418.59 435.74 C 1435.47 433.60 1453.50 437.46 1466.96 448.17 C 1478.63 458.02 1487.60 471.31 1491.54 486.13 C 1498.66 511.06 1499.87 537.58 1495.58 563.13 C 1492.79 580.19 1486.84 597.27 1475.65 610.69 C 1465.69 622.96 1450.78 630.84 1435.12 632.59 C 1416.04 635.13 1396.03 628.16 1382.79 614.18 C 1371.91 603.35 1365.40 588.94 1362.15 574.10 C 1357.28 551.63 1356.21 528.26 1359.64 505.50 C 1362.11 487.98 1369.05 470.95 1380.11 457.09 C 1390.21 446.21 1403.54 437.37 1418.59 435.74 M 1424.38 452.54 C 1416.18 454.59 1410.19 461.70 1407.47 469.44 C 1403.30 481.52 1401.16 494.22 1400.30 506.95 C 1399.71 519.62 1398.72 532.31 1399.53 545.01 C 1400.29 556.68 1400.71 568.44 1402.99 579.96 C 1404.66 589.29 1406.97 598.78 1412.21 606.82 C 1416.61 613.54 1425.62 617.61 1433.41 614.66 C 1440.57 612.31 1445.42 605.77 1447.95 598.93 C 1450.98 589.93 1452.64 580.50 1453.85 571.09 C 1456.01 550.50 1456.53 529.72 1455.04 509.06 C 1454.08 496.61 1453.11 483.95 1448.77 472.13 C 1446.72 466.69 1444.39 461.03 1439.87 457.17 C 1435.73 453.50 1429.92 451.05 1424.38 452.54 Z" />
<path fill="#1e1411" opacity="1.00" d=" M 218.19 436.77 C 231.12 435.97 244.08 436.48 257.02 436.33 C 266.65 436.51 276.34 435.78 285.93 436.85 C 288.13 438.05 287.21 441.10 287.60 443.15 C 283.67 444.72 279.19 446.07 276.70 449.78 C 272.97 455.06 272.83 461.83 272.74 468.05 C 272.82 512.36 272.87 556.67 272.83 600.98 C 272.84 607.29 273.85 614.00 277.87 619.10 C 280.41 622.18 284.62 622.78 288.20 623.99 C 288.08 625.94 287.97 627.91 287.85 629.88 C 283.56 630.17 279.26 630.31 274.96 630.19 C 255.97 629.74 236.98 630.39 217.99 629.86 C 217.85 627.88 217.73 625.90 217.63 623.93 C 221.38 622.61 225.85 621.66 228.10 618.02 C 231.57 612.72 231.65 606.14 231.82 600.03 C 231.90 555.35 231.73 510.67 231.91 465.99 C 231.81 460.65 231.20 455.11 228.64 450.33 C 226.33 446.30 221.72 444.62 217.61 443.09 C 217.53 440.96 217.79 438.85 218.19 436.77 Z" />
<path fill="#1e1411" opacity="1.00" d=" M 299.16 438.10 C 300.20 435.95 302.99 436.44 304.94 436.27 C 324.61 436.42 344.29 436.24 363.97 436.39 C 374.15 437.06 384.53 437.48 394.31 440.67 C 401.95 443.40 409.54 446.87 415.47 452.54 C 423.28 459.65 427.80 469.80 429.34 480.13 C 430.60 489.29 429.76 498.68 427.42 507.61 C 423.10 522.39 410.95 534.17 396.73 539.61 C 395.88 540.22 393.73 540.02 394.13 541.53 C 397.61 544.47 401.56 547.04 403.96 551.03 C 416.72 571.70 422.82 595.96 437.50 615.52 C 441.26 620.52 447.15 623.28 453.09 624.75 C 453.01 626.76 452.95 628.78 452.86 630.80 C 448.41 632.45 443.75 633.87 438.95 633.55 C 429.90 633.24 420.42 634.73 411.79 631.22 C 402.19 626.90 393.73 619.35 389.53 609.57 C 381.86 591.79 374.55 573.86 367.21 555.94 C 365.70 552.23 363.52 548.87 361.26 545.60 C 358.58 545.60 355.91 545.71 353.25 545.98 C 354.18 562.31 353.39 578.66 353.60 595.00 C 353.84 601.92 353.31 609.21 356.10 615.72 C 357.89 619.72 362.09 621.50 365.80 623.27 C 368.54 624.06 367.60 627.41 367.84 629.55 C 365.24 629.82 362.62 630.04 360.01 630.02 C 342.00 629.98 323.99 630.01 305.99 630.01 C 303.74 629.98 301.51 629.77 299.28 629.56 C 299.32 627.48 299.36 625.41 299.42 623.35 C 302.80 621.92 306.75 621.09 309.22 618.15 C 313.93 612.21 313.40 604.16 313.59 597.01 C 313.57 553.68 313.60 510.35 313.58 467.03 C 313.51 461.24 313.57 454.96 310.12 450.01 C 307.60 446.17 303.01 444.77 298.99 443.12 C 299.00 441.44 298.94 439.76 299.16 438.10 M 353.61 529.81 C 360.57 530.30 367.98 530.50 374.34 527.16 C 381.20 523.63 385.25 516.38 387.04 509.11 C 389.72 497.59 389.81 485.42 386.85 473.95 C 385.29 468.11 382.25 462.38 377.20 458.85 C 370.31 454.09 361.53 454.68 353.56 454.69 C 353.39 479.72 353.66 504.77 353.61 529.81 Z" />
<path fill="#1e1411" opacity="1.00" d=" M 582.43 437.33 C 584.80 436.24 587.50 436.45 590.06 436.34 C 608.68 436.35 627.30 436.10 645.92 436.32 C 649.60 436.20 648.77 440.52 648.87 442.93 C 645.21 444.66 641.04 446.20 638.84 449.84 C 635.64 455.29 635.46 461.84 635.55 467.99 C 635.67 499.00 635.51 530.00 635.48 561.01 C 635.31 573.32 635.51 586.11 640.40 597.62 C 646.95 610.66 665.23 614.54 677.52 607.58 C 682.52 605.08 686.51 600.78 688.66 595.63 C 693.44 584.44 694.25 572.08 694.25 560.05 C 694.24 532.38 694.13 504.70 694.08 477.03 C 694.03 470.97 694.32 464.88 693.48 458.87 C 692.87 454.56 690.93 450.27 687.45 447.55 C 684.65 445.44 681.26 444.39 678.06 443.09 C 678.15 440.89 678.27 438.70 678.42 436.52 C 686.27 435.90 694.16 436.28 702.03 436.27 C 708.07 436.38 714.18 435.80 720.13 437.16 C 720.42 438.72 720.71 440.29 721.01 441.86 C 718.27 444.57 715.41 447.34 713.86 450.95 C 711.17 456.90 711.11 463.59 711.22 470.00 C 711.39 502.34 710.97 534.67 711.26 567.01 C 711.31 582.01 708.31 597.19 701.45 610.60 C 695.59 620.03 686.13 627.13 675.57 630.48 C 662.85 634.28 649.11 635.42 636.13 632.29 C 625.13 629.47 614.33 623.87 607.49 614.55 C 601.67 606.98 598.52 597.73 596.73 588.45 C 594.68 576.41 595.86 564.17 595.50 552.04 C 595.56 523.05 595.69 494.06 595.47 465.07 C 595.31 459.06 594.61 452.41 590.24 447.86 C 588.04 445.30 584.62 444.53 581.53 443.64 C 581.65 441.52 581.61 439.32 582.43 437.33 Z" />
<path fill="#1e1411" opacity="1.00" d=" M 1102.98 436.68 C 1127.97 435.56 1153.00 436.62 1178.01 436.24 C 1188.31 436.11 1198.63 436.11 1208.92 436.55 C 1211.17 436.52 1212.01 439.11 1212.07 440.97 C 1213.05 453.92 1213.52 466.90 1213.67 479.88 C 1211.41 480.12 1209.17 480.35 1206.93 480.54 C 1204.26 474.55 1202.40 468.01 1198.11 462.91 C 1193.85 457.96 1187.43 454.94 1180.90 454.87 C 1172.54 454.73 1164.19 454.96 1155.84 454.74 C 1155.76 476.95 1155.69 499.16 1156.03 521.37 C 1164.01 521.12 1172.07 522.03 1180.00 520.79 C 1186.99 518.77 1188.53 510.69 1190.81 504.78 C 1193.20 504.66 1195.60 504.71 1197.99 505.08 C 1199.13 511.34 1198.52 517.72 1198.58 524.04 C 1198.65 534.55 1198.82 545.06 1198.41 555.57 C 1195.91 555.71 1193.43 555.91 1190.95 555.80 C 1189.10 549.72 1186.86 542.13 1179.96 540.14 C 1171.97 539.12 1163.87 540.00 1155.84 539.74 C 1155.76 560.15 1155.59 580.57 1155.99 600.99 C 1155.79 606.56 1160.08 612.50 1166.04 612.31 C 1175.93 612.52 1186.72 614.05 1195.66 608.76 C 1204.37 603.80 1208.18 594.04 1212.80 585.70 C 1215.52 585.84 1218.68 585.50 1220.65 587.84 C 1218.76 598.88 1216.35 609.82 1214.48 620.87 C 1213.93 623.70 1213.51 626.63 1212.18 629.23 C 1210.65 630.24 1208.72 629.90 1207.02 630.02 C 1172.26 629.91 1137.50 630.14 1102.75 630.08 C 1102.73 627.67 1102.75 625.27 1102.81 622.88 C 1106.34 621.74 1110.53 620.98 1112.71 617.61 C 1116.59 611.88 1116.14 604.61 1116.41 598.01 C 1116.57 555.00 1116.53 511.99 1116.42 468.98 C 1116.44 463.02 1116.92 456.63 1113.79 451.27 C 1111.64 447.00 1107.48 444.10 1102.86 443.11 C 1102.85 440.96 1102.89 438.81 1102.98 436.68 Z" />
<path fill="#1e1411" opacity="1.00" d=" M 1222.18 443.32 C 1222.52 440.77 1222.56 436.39 1226.14 436.49 C 1243.43 436.13 1260.74 436.28 1278.04 436.33 C 1285.74 436.50 1293.48 436.09 1301.14 437.11 C 1310.83 438.32 1320.39 441.19 1328.83 446.18 C 1335.13 449.66 1339.74 455.46 1343.68 461.36 C 1350.54 471.80 1351.67 484.82 1351.13 496.99 C 1350.15 513.92 1342.54 531.64 1327.40 540.47 C 1312.03 549.74 1293.45 549.55 1276.11 549.24 C 1275.81 565.49 1276.26 581.75 1276.25 598.00 C 1276.24 604.46 1276.88 611.17 1279.95 616.97 C 1282.23 621.11 1287.21 622.13 1291.30 623.66 C 1291.40 625.58 1291.50 627.50 1291.62 629.43 C 1282.46 630.62 1273.21 629.87 1264.01 630.08 C 1250.47 629.99 1236.91 630.46 1223.38 629.77 C 1223.31 627.87 1223.25 625.98 1223.23 624.09 C 1226.66 621.98 1231.16 620.93 1233.22 617.14 C 1237.36 610.20 1236.64 601.81 1236.81 594.06 C 1236.73 551.69 1236.56 509.32 1236.76 466.95 C 1236.93 460.45 1236.07 453.41 1231.69 448.29 C 1229.35 445.36 1225.45 444.70 1222.18 443.32 M 1276.06 454.59 C 1276.42 480.58 1275.82 506.58 1276.42 532.57 C 1283.93 532.38 1292.19 533.22 1298.77 528.81 C 1305.03 524.41 1307.97 516.78 1309.35 509.51 C 1310.71 501.40 1311.72 493.13 1310.84 484.90 C 1310.04 475.94 1307.59 466.49 1301.12 459.89 C 1294.37 453.78 1284.55 454.25 1276.06 454.59 Z" />
<path fill="#1e1411" opacity="1.00" d=" M 1498.83 436.79 C 1515.21 435.75 1531.62 436.57 1548.01 436.35 C 1565.44 436.43 1583.71 436.46 1599.71 444.34 C 1608.37 448.02 1615.45 454.93 1619.77 463.25 C 1624.97 472.88 1626.02 484.15 1625.33 494.91 C 1624.46 504.56 1622.14 514.48 1616.36 522.45 C 1610.07 531.33 1600.60 537.74 1590.18 540.73 C 1594.95 544.62 1599.82 548.76 1602.61 554.38 C 1611.08 571.41 1617.88 589.25 1626.96 605.99 C 1630.95 613.27 1636.42 620.97 1645.03 622.89 C 1649.18 622.95 1648.12 629.06 1645.27 630.35 C 1637.90 633.54 1629.66 631.78 1621.91 632.36 C 1608.76 633.03 1594.68 626.27 1588.87 614.10 C 1582.22 601.79 1577.65 588.54 1572.35 575.63 C 1568.12 566.69 1565.96 556.82 1560.79 548.33 C 1558.89 544.80 1554.31 546.33 1551.12 546.16 C 1551.43 563.46 1551.12 580.76 1551.30 598.07 C 1551.40 604.34 1551.28 610.99 1554.16 616.74 C 1556.17 620.72 1560.92 621.55 1564.48 623.58 C 1565.89 625.21 1565.06 627.64 1565.28 629.62 C 1543.06 630.69 1520.80 630.19 1498.56 629.90 C 1498.56 627.91 1498.57 625.92 1498.61 623.94 C 1502.13 621.78 1506.93 620.99 1508.96 616.99 C 1512.45 610.92 1511.73 603.65 1512.05 596.94 C 1512.35 554.30 1512.35 511.65 1512.32 469.01 C 1512.23 462.21 1511.93 454.87 1507.91 449.09 C 1505.73 445.97 1501.87 444.93 1498.83 442.92 C 1498.16 440.93 1498.70 438.81 1498.83 436.79 M 1551.23 454.77 C 1551.25 479.84 1551.27 504.90 1551.38 529.97 C 1560.45 530.75 1571.22 529.91 1577.41 522.32 C 1584.61 512.54 1585.86 499.78 1585.61 487.99 C 1584.97 477.99 1583.21 466.71 1575.08 459.89 C 1568.56 454.18 1559.35 454.45 1551.23 454.77 Z" />
<path fill="#1e1411" opacity="1.00" d=" M 1636.54 439.30 C 1636.89 437.27 1638.96 436.08 1640.91 436.12 C 1690.94 436.17 1740.97 436.18 1790.99 436.25 C 1793.51 436.80 1794.51 439.67 1794.50 441.99 C 1794.75 454.00 1796.61 465.97 1796.16 477.99 C 1794.66 481.02 1790.61 479.66 1787.95 479.84 C 1784.77 471.66 1780.28 463.05 1771.97 459.14 C 1760.71 453.14 1747.59 455.19 1735.37 455.02 C 1735.76 499.67 1735.51 544.32 1735.58 588.98 C 1736.02 599.28 1734.21 610.09 1738.02 619.95 C 1740.07 625.73 1746.37 627.65 1751.46 629.87 C 1751.19 632.12 1752.36 636.66 1748.85 636.62 C 1724.81 636.70 1700.75 637.09 1676.72 636.31 C 1676.61 634.09 1676.52 631.88 1676.45 629.67 C 1680.91 628.11 1686.25 627.25 1689.16 623.09 C 1693.10 617.19 1692.70 609.77 1693.05 602.99 C 1693.13 553.66 1693.08 504.32 1693.00 454.99 C 1682.85 455.27 1672.50 453.76 1662.55 456.35 C 1656.43 458.06 1650.31 461.44 1647.17 467.19 C 1644.89 470.84 1643.95 475.13 1641.84 478.84 C 1639.54 480.72 1636.35 479.47 1633.71 479.32 C 1633.67 472.21 1634.02 465.11 1634.83 458.05 C 1635.53 451.81 1634.98 445.43 1636.54 439.30 Z" />
</g>
<g id="#d6291bff">
<path fill="#d6291b" opacity="1.00" d=" M 963.10 36.66 C 980.90 32.99 999.63 31.52 1017.37 36.39 C 1027.53 38.86 1036.45 44.63 1046.45 47.62 C 1058.39 52.11 1071.33 53.06 1083.98 52.54 C 1100.06 52.04 1115.94 48.38 1132.07 49.30 C 1142.93 49.90 1154.00 50.82 1164.37 54.27 C 1163.83 55.08 1163.09 55.52 1162.14 55.60 C 1145.92 58.44 1131.28 66.65 1117.86 75.85 C 1108.43 82.11 1099.99 89.89 1089.70 94.79 C 1073.92 103.05 1055.35 105.41 1037.93 101.98 C 1030.33 100.48 1022.95 98.03 1015.75 95.20 C 1004.75 90.77 992.90 88.71 981.10 88.21 C 963.25 87.97 946.18 93.86 929.15 98.43 C 929.51 81.02 929.67 63.61 929.35 46.20 C 940.64 43.16 951.69 39.27 963.10 36.66 Z" />
<path fill="#d6291b" opacity="1.00" d=" M 873.34 176.36 C 887.11 164.50 900.39 152.06 912.95 138.92 C 916.14 138.78 919.34 138.69 922.55 138.68 C 926.59 145.66 933.04 150.71 938.68 156.33 C 961.05 177.09 984.35 196.91 1009.05 214.88 C 1030.07 230.01 1051.17 245.09 1073.17 258.79 C 1104.11 278.25 1135.46 297.07 1167.58 314.52 C 1185.26 324.19 1203.02 333.71 1220.89 343.02 C 1239.98 352.19 1258.40 362.74 1277.86 371.14 C 1293.56 379.02 1309.46 386.48 1325.57 393.49 C 1348.49 403.73 1371.56 413.65 1394.78 423.19 C 1391.93 425.26 1388.77 427.42 1385.07 427.18 C 1367.06 426.86 1349.02 427.60 1331.03 426.83 C 1321.34 421.69 1310.82 418.35 1300.08 416.23 C 1292.54 414.29 1284.69 414.96 1277.00 414.83 C 1267.73 414.79 1258.42 415.32 1249.20 414.39 C 1218.32 396.86 1187.91 378.44 1158.53 358.47 C 1127.15 337.62 1096.53 315.57 1067.38 291.68 C 1024.48 257.56 984.65 219.63 948.25 178.66 C 940.30 169.37 933.06 159.50 925.19 150.15 C 938.60 178.79 955.23 205.81 973.14 231.83 C 989.16 254.90 1005.83 277.54 1023.79 299.15 C 1049.99 330.78 1078.10 360.83 1107.59 389.41 C 1116.11 397.54 1124.78 405.55 1132.69 414.30 C 1119.14 415.09 1105.56 413.94 1092.01 414.63 C 1086.61 404.81 1077.95 397.15 1068.31 391.62 C 1054.23 383.45 1038.13 379.32 1022.03 377.63 C 1011.54 377.18 1001.02 377.46 990.53 377.64 C 983.76 362.93 976.87 348.27 970.73 333.28 C 959.58 304.80 948.67 276.17 940.19 246.77 C 932.45 221.24 925.80 195.35 921.56 168.99 C 920.54 162.46 919.46 155.90 917.22 149.66 C 914.67 158.25 913.96 167.23 912.07 175.95 C 900.77 228.71 884.34 280.28 864.32 330.35 C 857.86 347.63 849.76 364.24 842.07 380.99 C 836.22 392.02 831.60 403.68 825.19 414.42 C 816.43 414.64 807.66 414.17 798.90 414.55 C 785.95 412.81 772.92 414.38 759.97 415.14 C 740.17 414.12 720.35 415.34 700.55 414.47 C 725.08 391.06 749.60 367.58 772.45 342.50 C 796.98 316.43 819.42 288.46 840.68 259.67 C 859.48 234.35 877.50 208.35 892.74 180.69 C 898.12 171.03 904.60 161.91 908.66 151.56 C 901.65 158.43 896.91 167.18 890.45 174.53 C 858.55 210.55 824.27 244.56 786.98 275.01 C 774.77 284.77 762.92 294.97 750.53 304.51 C 721.11 327.46 690.41 348.72 659.22 369.18 C 636.33 384.71 612.43 398.63 588.81 412.98 C 585.94 414.97 582.32 414.87 578.99 414.82 C 562.32 414.44 545.61 415.38 528.97 413.98 C 513.54 413.33 497.87 416.83 484.42 424.49 C 481.83 425.98 479.08 427.56 475.98 427.27 C 460.18 427.08 444.37 427.89 428.59 426.91 C 447.33 418.44 466.66 411.39 485.55 403.28 C 504.27 394.70 523.22 386.64 541.78 377.73 C 548.34 374.68 554.65 371.13 561.30 368.28 C 579.86 359.87 597.63 349.86 616.04 341.14 C 632.24 332.21 648.73 323.84 665.00 315.04 C 697.15 297.19 728.96 278.71 759.91 258.85 C 774.17 250.32 788.00 241.09 801.49 231.41 C 825.96 213.75 850.53 196.15 873.34 176.36 Z" />
<path fill="#d6291b" opacity="1.00" d=" M 1644.94 652.06 C 1656.00 650.94 1667.14 651.16 1678.18 649.87 C 1680.98 660.76 1678.81 672.06 1676.42 682.81 C 1673.41 697.35 1667.79 711.70 1658.09 723.10 C 1646.80 736.53 1630.51 745.85 1613.08 748.13 C 1593.37 750.75 1572.91 747.75 1554.97 739.09 C 1528.24 726.43 1506.42 702.43 1498.76 673.61 C 1498.47 670.11 1498.15 666.62 1497.83 663.13 L 1497.73 662.08 C 1526.52 660.15 1555.32 658.34 1584.09 656.14 C 1604.34 654.39 1624.68 653.82 1644.94 652.06 Z" />
<path fill="#d6291b" opacity="1.00" d=" M 202.04 656.90 C 204.41 655.04 206.66 652.13 210.01 652.47 C 230.01 653.32 249.90 655.68 269.83 657.35 C 291.46 658.78 313.01 661.30 334.69 662.11 C 334.12 667.01 333.34 671.88 332.48 676.73 C 327.70 690.87 320.15 704.16 309.91 715.06 C 296.39 729.42 278.90 739.98 259.89 745.24 C 244.21 749.41 227.37 750.55 211.53 746.57 C 200.86 743.74 190.67 738.83 182.04 731.92 C 167.44 719.28 159.72 700.73 155.05 682.42 C 172.43 677.76 188.63 668.90 202.04 656.90 Z" />
<path fill="#d6291b" opacity="1.00" d=" M 529.85 674.42 C 575.54 676.54 621.23 678.78 666.95 679.95 C 691.62 680.74 716.29 682.04 740.98 681.79 C 747.36 681.96 753.79 681.45 760.13 682.48 C 760.16 683.80 760.21 685.14 760.27 686.48 C 756.18 704.15 748.74 721.19 737.60 735.58 C 728.18 747.44 717.01 758.08 704.04 765.99 C 676.06 783.18 640.82 789.07 609.09 779.94 C 591.86 774.91 575.88 765.55 563.23 752.79 C 544.79 734.08 533.34 709.05 529.90 683.11 C 529.90 680.21 529.86 677.31 529.85 674.42 Z" />
<path fill="#d6291b" opacity="1.00" d=" M 1162.02 679.90 C 1208.85 679.47 1255.58 676.23 1302.38 674.81 C 1302.28 676.22 1302.17 677.65 1302.06 679.08 C 1301.86 680.50 1301.73 681.94 1301.59 683.39 C 1297.91 714.82 1281.80 745.39 1255.62 763.74 C 1236.34 777.39 1212.62 784.61 1189.01 784.16 C 1157.93 783.63 1127.46 770.43 1105.56 748.44 C 1088.35 731.24 1076.51 708.97 1071.08 685.31 C 1071.13 684.67 1071.21 683.40 1071.25 682.76 C 1075.96 682.75 1080.88 681.78 1085.42 683.50 C 1093.41 686.39 1101.41 689.88 1110.01 690.41 C 1120.24 691.16 1130.77 689.53 1140.00 684.94 C 1143.02 683.48 1145.70 681.22 1149.04 680.45 C 1153.29 679.42 1157.69 679.86 1162.02 679.90 Z" />
</g>
<g id="#fbefc9ff">
<path fill="#fbefc9" opacity="1.00" d=" M 912.07 175.95 C 913.96 167.23 914.67 158.25 917.22 149.66 C 919.46 155.90 920.54 162.46 921.56 168.99 C 925.80 195.35 932.45 221.24 940.19 246.77 C 948.67 276.17 959.58 304.80 970.73 333.28 C 976.87 348.27 983.76 362.93 990.53 377.64 C 990.04 378.06 989.05 378.91 988.56 379.33 C 969.37 380.38 950.11 378.67 930.93 380.12 C 923.39 380.88 915.34 380.79 908.79 385.17 C 908.51 391.82 908.00 398.85 910.62 405.14 C 912.51 408.04 915.61 409.84 918.28 411.95 C 918.10 412.65 917.74 414.04 917.56 414.73 C 907.67 417.79 897.20 417.08 886.99 417.17 C 872.66 416.99 858.32 417.09 843.99 417.22 C 835.59 417.35 827.38 414.96 818.97 415.17 C 811.90 414.92 804.74 416.17 797.76 414.64 L 798.90 414.55 C 807.66 414.17 816.43 414.64 825.19 414.42 C 831.60 403.68 836.22 392.02 842.07 380.99 C 849.76 364.24 857.86 347.63 864.32 330.35 C 884.34 280.28 900.77 228.71 912.07 175.95 Z" />
<path fill="#fbefc9" opacity="1.00" d=" M 925.19 150.15 C 933.06 159.50 940.30 169.37 948.25 178.66 C 984.65 219.63 1024.48 257.56 1067.38 291.68 C 1096.53 315.57 1127.15 337.62 1158.53 358.47 C 1187.91 378.44 1218.32 396.86 1249.20 414.39 C 1246.65 416.01 1244.19 418.15 1241.10 418.55 C 1236.07 419.13 1231.09 417.99 1226.13 417.41 C 1221.09 416.80 1216.03 417.19 1210.98 417.17 C 1189.99 417.16 1169.00 417.17 1148.01 417.16 C 1143.28 417.14 1138.50 417.60 1133.85 416.57 C 1120.10 413.30 1105.88 416.86 1092.01 414.63 C 1105.56 413.94 1119.14 415.09 1132.69 414.30 C 1124.78 405.55 1116.11 397.54 1107.59 389.41 C 1078.10 360.83 1049.99 330.78 1023.79 299.15 C 1005.83 277.54 989.16 254.90 973.14 231.83 C 955.23 205.81 938.60 178.79 925.19 150.15 Z" />
<path fill="#fbefc9" opacity="1.00" d=" M 890.45 174.53 C 896.91 167.18 901.65 158.43 908.66 151.56 C 904.60 161.91 898.12 171.03 892.74 180.69 C 877.50 208.35 859.48 234.35 840.68 259.67 C 819.42 288.46 796.98 316.43 772.45 342.50 C 749.60 367.58 725.08 391.06 700.55 414.47 C 698.50 416.32 695.76 417.32 693.00 417.17 C 662.33 417.16 631.67 417.03 601.01 417.18 C 596.60 417.32 591.89 416.40 588.81 412.98 C 612.43 398.63 636.33 384.71 659.22 369.18 C 690.41 348.72 721.11 327.46 750.53 304.51 C 762.92 294.97 774.77 284.77 786.98 275.01 C 824.27 244.56 858.55 210.55 890.45 174.53 Z" />
<path fill="#fbefc9" opacity="1.00" d=" M 334.69 662.11 C 334.70 662.38 334.72 662.90 334.73 663.16 C 341.52 662.78 348.27 663.81 355.03 664.28 C 379.03 665.64 403.00 667.50 426.98 669.08 C 448.64 670.59 470.34 671.42 492.02 672.60 C 504.63 673.12 517.26 673.41 529.85 674.42 C 529.86 677.31 529.90 680.21 529.90 683.11 C 525.05 691.56 523.11 701.27 518.63 709.89 C 512.73 721.53 504.91 732.38 494.85 740.78 C 479.37 754.20 460.49 764.07 440.19 767.48 C 432.20 768.92 424.04 768.74 415.96 768.74 C 405.71 768.73 395.78 765.52 386.42 761.56 C 362.38 751.34 344.66 728.89 337.87 703.93 C 335.27 695.03 335.12 685.63 332.48 676.73 C 333.34 671.88 334.12 667.01 334.69 662.11 Z" />
<path fill="#fbefc9" opacity="1.00" d=" M 1464.37 665.15 C 1475.53 664.64 1486.63 662.64 1497.83 663.13 C 1498.15 666.62 1498.47 670.11 1498.76 673.61 C 1496.01 683.77 1496.01 694.44 1493.26 704.61 C 1488.85 723.23 1477.05 739.41 1462.29 751.29 C 1449.37 761.43 1433.37 767.54 1417.01 768.75 C 1405.09 769.46 1392.96 768.82 1381.47 765.37 C 1365.23 760.49 1349.29 753.02 1337.14 740.93 C 1331.30 735.04 1324.71 729.73 1320.24 722.66 C 1315.89 715.83 1311.52 708.96 1308.32 701.50 C 1305.73 695.59 1304.89 689.00 1301.59 683.39 C 1301.73 681.94 1301.86 680.50 1302.06 679.08 C 1302.61 677.12 1303.27 674.45 1305.79 674.45 C 1333.77 672.65 1361.86 671.67 1389.88 670.15 C 1414.69 668.23 1439.56 667.22 1464.37 665.15 Z" />
<path fill="#fbefc9" opacity="1.00" d=" M 760.13 682.48 C 794.09 682.27 828.05 682.66 862.01 682.83 C 881.35 682.61 900.67 683.72 920.01 683.27 C 933.68 683.55 947.35 683.19 961.03 682.84 C 997.76 683.47 1034.51 681.81 1071.25 682.76 C 1071.21 683.40 1071.13 684.67 1071.08 685.31 C 1062.69 717.46 1043.56 746.95 1016.72 766.72 C 987.95 787.47 952.30 797.76 916.99 798.01 C 890.71 798.04 863.98 793.34 840.35 781.47 C 831.45 777.04 822.90 771.92 814.77 766.22 C 796.04 752.74 781.90 733.82 771.31 713.52 C 766.69 704.90 764.80 695.14 760.27 686.48 C 760.21 685.14 760.16 683.80 760.13 682.48 Z" />
</g>
</svg>
